<?xml version="1.0" encoding="UTF-8"?>
<svg id="Layer_1" data-name="Layer 1" xmlns="http://www.w3.org/2000/svg" viewBox="0 0 3299.26 488.39">
  <defs>
    <style>
      .cls-1, .cls-2, .cls-3 {
        stroke-width: 0px;
      }

      .cls-2 {
        fill: #bea9df;
      }

      .cls-3 {
        fill: #9d6ef9;
      }
    </style>
  </defs>
  <g>
    <path class="cls-2" d="M200.62,74.98H0s0,200.62,0,200.62h97.58c25.81,0,46.73,20.92,46.73,46.73v13.1s0,144.3,0,144.3h144.3s214.7-260.45,214.7-260.45V74.98s-144.3,0-144.3,0l-136.33,165.39c-7.43,9.01-22.05,3.76-22.05-7.92V74.98Z"/>
    <polygon class="cls-3" points="578.27 0 578.27 152.06 547 169.2 547 31.28 409.07 31.28 426.2 0 578.27 0"/>
  </g>
  <g>
    <path class="cls-1" d="M991.95,79.92l-99.61,257.8h-86.1l-99.61-257.8h76.09l66.57,154.68,67.08-154.68h75.59Z"/>
    <path class="cls-1" d="M1272.3,210.07c0,18.52-4,36.54-11.01,53.56-7.01,16.52-17.02,31.04-29.53,43.55-12.51,13.02-27.03,22.53-43.55,29.53-17.02,7.51-35.04,11.01-53.56,11.01s-36.54-3.51-53.56-10.51c-16.52-7.01-31.04-17.02-44.05-29.53-12.51-12.52-22.53-27.53-29.53-43.55-7.01-17.02-10.51-35.04-10.51-53.56-.5-18.52,3.51-36.54,10.51-53.56,7.01-16.52,17.02-31.54,29.53-44.05,12.52-12.52,27.03-22.53,43.55-29.53,17.02-7.01,35.04-11.01,53.56-11.01s36.54,3.51,53.56,11.01c16.52,6.51,31.04,16.52,44.05,29.03,12.52,13.02,22.53,27.53,29.53,44.05,7.01,17.02,10.51,35.04,11.01,53.56ZM1203.72,210.07c0-38.54-31.04-69.08-69.58-69.08s-69.08,31.04-69.08,69.08,31.04,69.58,69.58,69.58,69.08-31.53,69.08-69.58Z"/>
    <path class="cls-1" d="M1485.06,75.91v65.58c-5.01-1-10.51-1.5-16.02-1.5-37.04,0-69.08,28.53-69.08,78.59v119.14h-77.09V80.42h77.09v30.04c3.51-8.51,17.52-37.54,61.07-37.54,8.01,0,17.02,1,24.03,3Z"/>
    <path class="cls-1" d="M1749.89,262.63c0,11.51-3.51,22.53-9.51,33.04-6.01,10.01-14.52,19.02-25.53,26.53-10.51,8.01-23.03,14.02-36.54,18.02-14.01,4.5-29.03,7.01-44.55,7.01-18.52,0-36.04-3-51.56-9.01-14.01-5-27.03-12.01-37.04-22.02-24.53-25.03-29.03-44.05-29.03-61.57h73.08c0,23.53,22.53,35.04,44.55,35.04,14.52,0,43.05-7.51,43.05-27.03,0-24.53-41.05-30.54-63.07-33.54-21.03-2.5-43.55-8.01-62.57-20.02-18.02-10.51-30.54-29.03-30.54-52.06,0-47.06,49.56-85.1,110.13-85.1,34.04,0,62.07,8.01,82.59,23.03,25.53,19.02,28.03,40.55,28.03,54.06h-66.58c0-17.52-30.53-22.03-43.55-22.03-15.52,0-38.05,4-38.05,24.03,0,13.52,21.03,17.02,47.56,21.03,23.53,3.5,50.06,8.01,71.58,20.52,12.01,7.01,20.52,15.52,27.03,26.03,3,6.01,6.01,12.51,7.51,19.52,2,7.51,3.01,15.52,3.01,24.53Z"/>
    <path class="cls-1" d="M2116.83,207.06c0,18.52-4,36.54-11.01,53.56-7.01,16.52-17.02,31.04-29.53,44.05-12.52,12.52-27.53,22.53-43.55,29.53-17.02,7.01-35.04,10.51-54.06,10.51s-36.54-3.5-53.56-10.51c-11.01-5-21.02-11.01-30.54-18.02v125.65h-77.59V79.92h77.59v18.02c9.51-7.01,19.52-13.01,30.54-18.02,17.02-7.01,35.04-10.51,53.56-10.51s37.04,3.51,54.06,10.51c16.02,7.01,31.04,17.02,43.55,29.53,12.51,13.02,22.53,27.53,29.53,44.05,7.01,17.02,11.01,35.04,11.01,53.56ZM2048.25,207.06c0-38.55-31.04-69.58-69.58-69.58s-69.08,31.04-69.08,69.58,31.04,69.58,69.08,69.58,69.58-31.04,69.58-69.58Z"/>
    <path class="cls-1" d="M2347.11,75.91v65.58c-5.01-1-10.51-1.5-16.02-1.5-37.04,0-69.08,28.53-69.08,78.59v119.14h-77.09V80.42h77.09v30.04c3.51-8.51,17.52-37.54,61.07-37.54,8.01,0,17.02,1,24.03,3Z"/>
    <path class="cls-1" d="M2384.17,207.56v-127.65h77.59v127.65c0,41.05,14.01,62.57,59.57,62.57,33.04,0,58.07-26.53,58.57-60.57,0,0,1-80.09,1-129.65h77.59v257.8h-77.59v-20.52c-.5.5-27.04,29.03-68.58,29.03-105.62,0-128.15-78.09-128.15-138.66Z"/>
    <path class="cls-1" d="M2984.88,210.07v127.65h-77.59v-127.65c0-41.05-14.02-62.57-60.07-62.57-33.04,0-58.07,27.03-58.57,61.07v129.15h-78.59V79.92h77.59v20.52c.5-.5,27.03-29.03,69.08-29.03,105.62,0,128.15,78.09,128.15,138.66Z"/>
    <path class="cls-1" d="M3299.26,79.92v251.79c0,68.58-48.56,156.68-156.68,156.68-48.06,0-86.1-25.03-97.11-33.54l52.06-58.07c12.52,8.51,28.04,14.02,45.05,14.02,41.55,0,75.59-32.54,78.59-73.09-19.02,9.51-40.55,15.02-63.08,15.02-77.59,0-140.16-62.57-140.16-140.16s62.57-140.16,140.16-140.16c23.03,0,45.05,7.01,63.57,22.03v-14.52h77.59ZM3221.67,211.07c0-36.54-30.03-71.08-70.08-71.08s-69.08,31.04-69.08,69.58,31.03,69.58,69.08,69.58c35.54,0,70.08-30.03,70.08-68.08Z"/>
  </g>
  <g>
    <path class="cls-2" d="M2006.53,398.87c-11.75,0-24.28,5.02-24.28,15.44s11.48,13.33,25.08,15.44c18.35,2.77,36.69,7.13,36.69,27.06s-20.06,27.85-37.62,27.85c-15.44,0-31.68-5.54-38.8-21.25l9.11-5.68c6.2,11.35,17.16,16.36,29.83,16.36,11.22,0,26.27-3.69,26.27-17.42,0-11.35-12.8-14.65-26.66-16.76-17.82-2.77-35.24-6.73-35.24-25.47-.4-18.61,19.66-25.87,35.37-25.87,13.33,0,26.79,3.43,35.11,17.03l-8.71,5.41c-5.28-8.05-15.71-12.01-26.13-12.14Z"/>
    <path class="cls-2" d="M2181.9,436.88c0,24.29-15.31,47.78-46.85,47.78s-47.12-23.36-47.12-47.78c0-26.92,18.08-48.3,47.25-48.3,31.28,0,46.72,23.89,46.72,48.3ZM2135.17,399.13c-23.63,0-35.64,17.69-35.64,37.75,0,18.61,11.35,37.09,35.64,37.09s35.37-18.88,35.37-37.09-11.22-37.22-35.37-37.75Z"/>
    <path class="cls-2" d="M2243.88,472.12h50.29v10.69h-61.9v-92.39h11.61v81.7Z"/>
    <path class="cls-2" d="M2411.99,390.42v55.7c0,25.61-17.55,38.54-37.62,38.54s-37.88-12.67-37.88-38.54v-55.7h11.48v55.7c0,18.35,12.14,27.98,26.39,27.98s26.13-10.03,26.13-28.11v-55.56h11.48Z"/>
    <path class="cls-2" d="M2456.96,400.72v-10.3h74.44v10.3h-31.54v82.09h-11.22v-82.09h-31.68Z"/>
    <path class="cls-2" d="M2577.69,390.42h11.61v92.39h-11.61v-92.39Z"/>
    <path class="cls-2" d="M2733.53,436.88c0,24.29-15.31,47.78-46.85,47.78s-47.12-23.36-47.12-47.78c0-26.92,18.08-48.3,47.25-48.3,31.28,0,46.72,23.89,46.72,48.3ZM2686.81,399.13c-23.63,0-35.64,17.69-35.64,37.75,0,18.61,11.35,37.09,35.64,37.09s35.37-18.88,35.37-37.09-11.22-37.22-35.37-37.75Z"/>
    <path class="cls-2" d="M2791.95,390.42l56.62,70.88v-70.88h11.35v92.39h-7.92l-56.62-70.61v70.61h-11.48v-92.39h8.05Z"/>
    <path class="cls-2" d="M2948.05,398.87c-11.75,0-24.28,5.02-24.28,15.44s11.48,13.33,25.08,15.44c18.35,2.77,36.69,7.13,36.69,27.06s-20.06,27.85-37.62,27.85c-15.44,0-31.68-5.54-38.8-21.25l9.11-5.68c6.2,11.35,17.16,16.36,29.83,16.36,11.22,0,26.27-3.69,26.27-17.42,0-11.35-12.8-14.65-26.66-16.76-17.82-2.77-35.24-6.73-35.24-25.47-.4-18.61,19.66-25.87,35.37-25.87,13.33,0,26.79,3.43,35.11,17.03l-8.71,5.41c-5.28-8.05-15.71-12.01-26.13-12.14Z"/>
  </g>
</svg>